<svg width="31" height="24" viewBox="0 0 31 24" fill="none" xmlns="http://www.w3.org/2000/svg">
<path d="M0.96 23H9.856V22.552C6.656 22.136 5.696 20.792 5.696 17.56V2.872H5.888L14.208 23.032H15.36L22.816 2.872H22.976V20.728C22.976 22.008 22.176 22.456 19.904 22.552V23H30.944V22.552C28.256 22.456 27.616 21.944 27.616 20.728V2.968C27.616 1.752 28.256 1.208 30.944 1.112V0.695999H22.784L16.736 17.144H16.576L9.984 0.695999H0.96V1.112C3.712 1.176 4.896 2.648 4.896 4.568V17.56C4.896 20.792 3.968 22.168 0.96 22.552V23Z" fill="white"/>
</svg>
