<svg width="260" height="176" fill="none" xmlns="http://www.w3.org/2000/svg"><path opacity=".1" d="M67.6 175.36c-20.96 0-37.44-7.92-49.44-23.76C6.32 135.6.4 114.4.4 88s5.92-47.52 17.76-63.36c12-16 28.48-24 49.44-24 21.12 0 37.6 8 49.44 24C128.88 40.48 134.8 61.6 134.8 88s-5.92 47.6-17.76 63.6c-11.84 15.84-28.32 23.76-49.44 23.76zm-25.44-46.32c5.76 9.28 14.24 13.92 25.44 13.92 11.2 0 19.68-4.72 25.44-14.16 5.92-9.44 8.88-23.04 8.88-40.8 0-17.92-2.96-31.6-8.88-41.04C87.28 37.52 78.8 32.8 67.6 32.8c-11.2 0-19.68 4.72-25.44 14.16C36.4 56.4 33.52 70.08 33.52 88c0 17.92 2.88 31.6 8.64 41.04zm178.935-56.88c11.36 3.36 20.56 9.28 27.6 17.76 7.2 8.32 10.8 18.4 10.8 30.24 0 17.28-5.84 30.8-17.52 40.56-11.52 9.76-25.68 14.64-42.48 14.64-13.12 0-24.88-2.96-35.28-8.88-10.24-6.08-17.68-14.96-22.32-26.64l28.32-16.32c4.16 12.96 13.92 19.44 29.28 19.44 8.48 0 15.04-2 19.68-6 4.8-4.16 7.2-9.76 7.2-16.8 0-6.88-2.4-12.4-7.2-16.56-4.64-4.16-11.2-6.24-19.68-6.24h-7.2l-12.72-19.2 33.12-43.2h-65.76V4h105.6v27.36l-31.44 40.8z" fill="#fff"/></svg>