<svg width="215" height="176" fill="none" xmlns="http://www.w3.org/2000/svg"><path opacity=".1" d="M67.6 175.36c-20.96 0-37.44-7.92-49.44-23.76C6.32 135.6.4 114.4.4 88s5.92-47.52 17.76-63.36c12-16 28.48-24 49.44-24 21.12 0 37.6 8 49.44 24C128.88 40.48 134.8 61.6 134.8 88s-5.92 47.6-17.76 63.6c-11.84 15.84-28.32 23.76-49.44 23.76zm-25.44-46.32c5.76 9.28 14.24 13.92 25.44 13.92 11.2 0 19.68-4.72 25.44-14.16 5.92-9.44 8.88-23.04 8.88-40.8 0-17.92-2.96-31.6-8.88-41.04C87.28 37.52 78.8 32.8 67.6 32.8c-11.2 0-19.68 4.72-25.44 14.16C36.4 56.4 33.52 70.08 33.52 88c0 17.92 2.88 31.6 8.64 41.04zM185.284 4h28.8v168h-33.12V39.04l-31.68 8.88-8.16-28.32L185.284 4z" fill="#fff"/></svg>